<svg xmlns="http://www.w3.org/2000/svg" xmlns:xlink="http://www.w3.org/1999/xlink" width="500" zoomAndPan="magnify" viewBox="0 0 375 374.999991" height="500" preserveAspectRatio="xMidYMid meet" version="1.2"><defs><clipPath id="9cb181106e"><path d="M 193 39.574219 L 335.074219 39.574219 L 335.074219 181 L 193 181 Z M 193 39.574219 "/></clipPath><clipPath id="b59a696d4a"><path d="M 39.574219 39.574219 L 181 39.574219 L 181 181 L 39.574219 181 Z M 39.574219 39.574219 "/></clipPath><clipPath id="9ee7056ea3"><path d="M 39.574219 194 L 181 194 L 181 335.074219 L 39.574219 335.074219 Z M 39.574219 194 "/></clipPath></defs><g id="51413dbbd8"><rect x="0" width="375" y="0" height="374.999991" style="fill:#ffffff;fill-opacity:1;stroke:none;"/><rect x="0" width="375" y="0" height="374.999991" style="fill:#49615d;fill-opacity:1;stroke:none;"/><path style="fill:none;stroke-width:4;stroke-linecap:butt;stroke-linejoin:miter;stroke:#defc58;stroke-opacity:1;stroke-miterlimit:4;" d="M 0.0020437 2.001908 L 160.002054 2.001908 " transform="matrix(0.75,0,0,0.75,49.111748,57.939975)"/><path style=" stroke:none;fill-rule:nonzero;fill:#defc58;fill-opacity:1;" d="M 235.03125 251.054688 L 298.015625 251.054688 L 298.015625 264.707031 L 235.03125 264.707031 Z M 235.03125 278.371094 L 298.015625 278.371094 L 298.015625 291.707031 L 235.03125 291.707031 Z M 235.03125 278.371094 "/><g clip-rule="nonzero" clip-path="url(#9cb181106e)"><path style=" stroke:none;fill-rule:nonzero;fill:#defc58;fill-opacity:1;" d="M 317 39.410156 L 193.851562 39.410156 L 193.851562 180.574219 L 335.425781 180.574219 L 335.425781 57.746094 C 335.429688 57.140625 335.402344 56.539062 335.34375 55.9375 C 335.289062 55.339844 335.203125 54.742188 335.085938 54.148438 C 334.96875 53.558594 334.824219 52.972656 334.652344 52.394531 C 334.476562 51.816406 334.273438 51.25 334.046875 50.691406 C 333.816406 50.136719 333.558594 49.589844 333.273438 49.058594 C 332.988281 48.527344 332.679688 48.007812 332.34375 47.507812 C 332.007812 47.007812 331.648438 46.523438 331.265625 46.058594 C 330.882812 45.589844 330.476562 45.144531 330.050781 44.71875 C 329.621094 44.292969 329.175781 43.890625 328.707031 43.511719 C 328.238281 43.128906 327.753906 42.773438 327.25 42.4375 C 326.746094 42.105469 326.230469 41.796875 325.695312 41.515625 C 325.160156 41.234375 324.617188 40.980469 324.058594 40.753906 C 323.5 40.527344 322.929688 40.328125 322.351562 40.15625 C 321.773438 39.984375 321.1875 39.84375 320.59375 39.730469 C 320 39.617188 319.40625 39.535156 318.804688 39.480469 C 318.203125 39.425781 317.601562 39.402344 317 39.410156 Z M 305.480469 119.453125 L 227.566406 119.453125 L 227.566406 106.117188 L 305.480469 106.117188 Z M 305.480469 119.453125 "/></g><g clip-rule="nonzero" clip-path="url(#b59a696d4a)"><path style=" stroke:none;fill-rule:nonzero;fill:#defc58;fill-opacity:1;" d="M 39.09375 57.746094 L 39.09375 180.546875 L 180.351562 180.546875 L 180.351562 39.378906 L 57.445312 39.378906 C 56.84375 39.375 56.242188 39.402344 55.640625 39.457031 C 55.042969 39.511719 54.445312 39.597656 53.855469 39.714844 C 53.265625 39.828125 52.679688 39.972656 52.101562 40.144531 C 51.527344 40.316406 50.957031 40.519531 50.402344 40.75 C 49.84375 40.976562 49.300781 41.234375 48.769531 41.515625 C 48.238281 41.800781 47.71875 42.109375 47.21875 42.441406 C 46.71875 42.777344 46.234375 43.132812 45.769531 43.515625 C 45.304688 43.898438 44.855469 44.300781 44.429688 44.726562 C 44.003906 45.152344 43.601562 45.601562 43.21875 46.066406 C 42.839844 46.53125 42.480469 47.015625 42.148438 47.515625 C 41.8125 48.019531 41.507812 48.535156 41.222656 49.066406 C 40.941406 49.597656 40.6875 50.144531 40.457031 50.699219 C 40.226562 51.257812 40.027344 51.824219 39.855469 52.402344 C 39.683594 52.980469 39.539062 53.5625 39.425781 54.15625 C 39.3125 54.746094 39.226562 55.34375 39.171875 55.941406 C 39.113281 56.542969 39.089844 57.144531 39.09375 57.746094 Z M 68.976562 106.117188 L 100.9375 106.117188 L 100.9375 73.828125 L 114.664062 73.828125 L 114.664062 106.117188 L 146.574219 106.117188 L 146.574219 119.453125 L 114.664062 119.453125 L 114.664062 151.742188 L 100.996094 151.742188 L 100.996094 119.453125 L 68.976562 119.453125 Z M 68.976562 106.117188 "/></g><g clip-rule="nonzero" clip-path="url(#9ee7056ea3)"><path style=" stroke:none;fill-rule:nonzero;fill:#defc58;fill-opacity:1;" d="M 39.09375 317.296875 C 39.089844 317.902344 39.117188 318.5 39.171875 319.101562 C 39.226562 319.699219 39.3125 320.296875 39.429688 320.886719 C 39.542969 321.476562 39.6875 322.0625 39.859375 322.640625 C 40.03125 323.214844 40.234375 323.78125 40.460938 324.339844 C 40.691406 324.898438 40.945312 325.441406 41.226562 325.972656 C 41.511719 326.503906 41.820312 327.023438 42.152344 327.523438 C 42.484375 328.023438 42.84375 328.507812 43.226562 328.972656 C 43.605469 329.441406 44.011719 329.886719 44.4375 330.3125 C 44.863281 330.738281 45.308594 331.140625 45.773438 331.523438 C 46.238281 331.90625 46.722656 332.261719 47.222656 332.597656 C 47.722656 332.929688 48.238281 333.238281 48.773438 333.523438 C 49.304688 333.804688 49.847656 334.0625 50.402344 334.292969 C 50.960938 334.519531 51.527344 334.722656 52.105469 334.894531 C 52.679688 335.066406 53.265625 335.210938 53.855469 335.328125 C 54.449219 335.441406 55.042969 335.527344 55.640625 335.585938 C 56.242188 335.640625 56.84375 335.667969 57.445312 335.664062 L 180.351562 335.664062 L 180.351562 194.257812 L 39.09375 194.257812 Z M 75.617188 248.683594 L 85.226562 239.070312 L 107.753906 261.925781 L 130.613281 239.070312 L 140.222656 248.683594 L 117.367188 271.539062 L 140.238281 294.066406 L 130.625 303.664062 L 107.769531 281.136719 L 85.242188 303.664062 L 75.632812 294.066406 L 98.15625 271.539062 Z M 75.617188 248.683594 "/></g></g></svg>